<?xml version="1.0" encoding="utf-8"?>
<!-- Generator: Adobe Illustrator 23.0.0, SVG Export Plug-In . SVG Version: 6.00 Build 0)  -->
<svg version="1.1" id="图层_1" xmlns="http://www.w3.org/2000/svg" xmlns:xlink="http://www.w3.org/1999/xlink" x="0px" y="0px"
	 viewBox="0 0 244.8 68" style="enable-background:new 0 0 244.8 68;" xml:space="preserve">
<style type="text/css">
	.st0{fill:#2465B1;}
</style>
<path class="st0" d="M105.4-170.8c-1.6-6.3-6.5-11.2-12.8-12.8c-11.8-1.9-23.8-1.9-35.6,0c-6.3,1.6-11.2,6.5-12.8,12.8
	c-1.9,11.8-1.9,23.8,0,35.6c1.6,6.3,6.5,11.2,12.8,12.8c11.8,1.9,23.8,1.9,35.6,0c6.3-1.6,11.2-6.5,12.8-12.8
	C107.3-147,107.3-159,105.4-170.8z M74.1-150.7c-2.8,4.4-6.6,8.2-11.1,11c-1.5,0.9-3.3,0.9-4.8,0.1c-1.5-0.8-2.4-2.3-2.5-4
	c0-1.7,0.9-3.3,2.4-4.1c2.3-1.4,4.4-3.2,6.1-5.3c-1.8-2.1-3.8-3.8-6.1-5.3c-2.3-1.3-3-4.2-1.7-6.4s4.3-2.9,6.5-1.6
	c4.5,2.8,8.2,6.5,11.1,10.9C75-154,75-152.1,74.1-150.7z M90-141H78.6c-2.1,0-3.8-1-3.8-3s1.7-3,3.8-3H90c2.1,0,3.8,1,3.8,3
	S92.1-141,90-141z"/>
<g>
	<path d="M88.1,17.2H99c0,1.6-0.1,2.8-0.2,3.6v5.3c0,2.3,0.1,4,0.3,5.2c1-1.1,1.6-2.3,1.7-3.4c0.1-1.4,0.1-3.7,0.2-6.7
		c-0.1-1.4-0.1-3.6-0.2-6.4h5.9c0,0.3,0,0.6,0,0.8c-0.3,1.6-0.3,2.6,0,3c0.1,0.1,0.5,0.1,1.3,0.2c0.5,0,1,0,1.4,0v6.6
		c-0.4,0-0.9-0.1-1.4-0.2c-0.6,0-1,0.1-1.1,0.2c-0.3,0.3-0.4,0.9-0.2,1.7c0,0.2,0,0.3,0,0.5c0.1,0,0.2,0.1,0.5,0.2
		c0.1-0.1,0.2-0.1,0.5-0.2c0.1,0.1,0.1,0.2,0.2,0.3c0.1,0.1,0.1,0.2,0.2,0.3c-0.5,0.1-1,0.3-1.4,0.8c0,0.1,0.1,0.2,0.2,0.3
		c-0.5,0.1-1.1,0.4-1.9,0.9c0.1,0.1,0.2,0.1,0.3,0.2c0.1,0.2,0.1,0.3,0.2,0.5c-0.6,0.3-0.9,0.4-0.8,0.3c0,0.1-0.1,0.2-0.3,0.5
		c0.1,0,0.2,0.1,0.3,0.2c-0.4,0-0.7,0.1-0.9,0.3v0.3l0.6,1.3l-0.3,0.3c0.1,0.1,0.1,0.1,0.2,0.2c-0.2,0.1-0.4,0.1-0.6,0.2
		c-0.2,0.2-0.3,0.3-0.5,0.3c0.1,0.1,0.1,0.1,0.2,0.2c-0.7,0-1.2,0.1-1.6,0.3c-0.6-0.7-1.3-1.5-1.9-2.3l-0.6-0.6
		c-0.1,0.4-0.1,1.1-0.2,2c0,0.7,0,1.4,0,2c0,0.5,0,1,0,1.4c-0.1,0.1-0.2,0.1-0.3,0.2c-0.4,0.1-0.9,0.3-1.6,0.6
		c0.1,0.1,0.1,0.1,0.2,0.2c-0.1,0-0.2,0.1-0.3,0.2c0.1,0.1,0.1,0.1,0.2,0.2c-0.1,0-0.2,0.1-0.3,0.2c0.1,0.1,0.2,0.2,0.5,0.3
		c-0.6,0.4-1.5,0.8-2.5,1.1c-0.7,0.3-1.5,0.6-2.3,0.9c0.1,0,0.2,0.1,0.3,0.2c-0.4,0.3-0.9,0.6-1.4,0.9l-2.5,1.3
		c0.1,0.2,0.2,0.4,0.5,0.6L89,44.4c0.3,0.3,0.6,0.6,0.9,0.8c-0.2,0-0.3,0.1-0.5,0.2c0.1,0,0.2,0.1,0.3,0.2c-0.6,0.2-1.1,0.4-1.4,0.6
		c0.1,0,0.2,0.1,0.3,0.2c-0.1,0-0.2,0.1-0.3,0.2c0.2,0.1,0.4,0.2,0.6,0.5c-0.3,0-0.6,0.2-0.9,0.5V24.3v-4.7
		C88.1,18.9,88.1,18.1,88.1,17.2z M99,38.2c0.3-0.1,0.6-0.2,0.9-0.5c0.2-0.1,0.5-0.1,0.9-0.2v8.8c-1.3,0-2.7,0-4.2,0
		c-0.2,0-0.4,0-0.8,0h-0.6c-0.3,0.2-0.4,0.7-0.2,1.6c0,0.2,0,0.3,0,0.5h-5.3c0-0.2,0-0.4,0-0.8c0.3-0.2,0.7-0.4,1.1-0.6
		c-0.1-0.1-0.2-0.2-0.5-0.3c-0.1,0-0.2-0.1-0.3-0.2c0.1-0.1,0.2-0.1,0.5-0.2c-0.1-0.1-0.2-0.1-0.3-0.2c0.4-0.2,0.9-0.4,1.6-0.6
		c-0.1-0.1-0.2-0.1-0.3-0.2c0.1-0.1,0.2-0.1,0.5-0.2c-0.2-0.1-0.4-0.2-0.6-0.5c-0.1-0.1-0.2-0.2-0.5-0.3c0.1-0.2,0.2-0.3,0.5-0.5
		c-0.2-0.2-0.3-0.3-0.5-0.3c-0.1-0.1-0.2-0.1-0.5-0.2c0.8-0.3,1.6-0.6,2.3-0.9c0.5-0.2,1.2-0.6,2-1.3c-0.1-0.1-0.2-0.1-0.3-0.2
		c0.2,0,0.4-0.1,0.6-0.2c0.6-0.2,1-0.3,1.1-0.3c0.3-0.1,0.6-0.2,0.9-0.5c1.1-0.5,1.8-0.9,2-1.1c-0.2-0.1-0.3-0.2-0.5-0.3
		c0.1-0.1,0.2-0.1,0.3-0.2l-0.2-0.2c0.1-0.1,0.2-0.1,0.3-0.2L99,38.2z M93.5,39.7c0.7,0,1.2-0.1,1.4-0.3c0.1-0.3,0.1-0.9,0.2-1.9
		c-0.1-0.4-0.1-1-0.2-1.7V23.9c-0.3-0.1-0.8-0.1-1.4-0.2c-0.2,1.6-0.3,2.9-0.5,3.9v4.1c0.1,0.9,0.1,2.2,0.2,3.9
		c0.1,0.9,0.1,2.2,0.2,3.9C93.5,39.6,93.5,39.7,93.5,39.7z M106.8,31l0.3-0.3c0.1-0.1,0.1-0.2,0.2-0.3L107,30
		c0.6-0.4,1.2-0.8,1.7-1.1c-0.1-0.1-0.1-0.2-0.2-0.3c0.3-0.1,0.6-0.2,0.8-0.5c0.1,0,0.3-0.2,0.6-0.5c-0.1-0.2-0.2-0.3-0.3-0.5
		c0.3-0.2,0.9-0.4,1.7-0.6c0.1,0.7,0.4,1.5,0.9,2.5c0-0.4,0-0.9,0-1.4c0-1.4,0.1-2.3,0.2-2.5c0.1-0.5,0.7-0.9,1.9-1.3
		c-0.1-0.1-0.2-0.1-0.3-0.2l0.3-0.3l-0.2-0.2l0.9-0.5c0.2-0.1,0.4-0.3,0.8-0.6l-0.2-0.2l0.3-0.3c-0.1-0.1-0.1-0.2-0.2-0.3l0.6-0.3
		c-0.1-0.1-0.2-0.1-0.3-0.2c0.1-0.1,0.2-0.1,0.3-0.2c-0.1-0.2-0.2-0.3-0.3-0.5c0.1-0.1,0.2-0.2,0.5-0.3l-0.2-0.2
		c0.1-0.1,0.2-0.1,0.5-0.2c-0.1-0.1-0.1-0.2-0.2-0.3c0.1-0.1,0.2-0.1,0.3-0.2l-0.2-0.2c0.7-0.3,1.7-0.8,3-1.4
		c0.6-0.4,1.5-0.8,2.5-1.1c-0.1-0.1-0.2-0.1-0.3-0.2c0.1-0.1,0.2-0.1,0.5-0.2l-0.2-0.2h0.3c0.9,1.9,1.6,3.8,1.9,5.6
		c-0.6,0.5-1.3,1-2,1.4c-0.1,0.1-0.4,0.3-1.1,0.6c-0.2,0.2-0.5,0.4-0.9,0.6c-1.3,0.3-2,0.7-2.2,1.3c-0.1,0.1-0.1,0.5-0.2,1.4
		c0.1,0.5,0.1,1,0.2,1.6c0.2,0.1,0.4,0.1,0.6,0.2c0.2,0.1,0.5,0.1,0.9,0.2c0.2-0.4,0.3-1,0.3-1.7c0.1-0.1,0.1-0.3,0.2-0.8
		c0.1-0.2,0.1-0.4,0.2-0.6l0.6,0.3c0.6,0.4,1.3,0.8,1.9,1.1c0.1,0.1,0.3,0.1,0.8,0.2c0.4,0.2,0.7,0.3,0.8,0.5
		c0.1,0.2,0.1,0.8,0.2,1.9c-0.1,0.6-0.1,1.4-0.2,2.2c-0.7,1.9-1.7,2.9-3.1,3.1h-4.1c-0.2,0-0.4,0-0.8,0H116
		c-0.3,0.3-0.4,0.9-0.2,1.7v0.6c0.8,0.1,2.1,0.1,3.9,0.2h4.1c0,2.2,0,4.3,0,6.4c-1.9,0-3.8,0-5.8,0c-0.3,0-0.7-0.1-1.1-0.2
		c-0.6,0-0.9,0.1-0.9,0.2c-0.3,0.2-0.4,0.6-0.2,1.3c0,0.2,0,0.3,0,0.5c0,1.7,0,3.5,0,5.2c-2.1,0-4.2,0-6.4,0v-5v-0.9
		c0-0.2,0-0.4,0-0.8c-0.3-0.3-0.8-0.4-1.6-0.2h-0.3H102c0-2.1,0-4.2,0-6.4c1.9,0,3.7,0,5.5,0h0.9h0.9c0.2-0.2,0.3-0.7,0.3-1.6
		c-0.1-0.4-0.1-0.9-0.2-1.6c1.6,0,2.7-0.1,3.3-0.3c-0.2-0.4-0.3-0.7-0.3-0.9c-0.2-0.4-0.3-0.7-0.3-0.8c-0.3,0.2-1.1,0.5-2.5,1.1
		c-0.6,0.2-1,0.4-1.3,0.6c-0.4,0.2-0.8,0.3-1.3,0.5c-0.9,0.5-1.9,1-2.8,1.4c-0.2-0.3-0.4-0.7-0.6-1.1c1-0.4,1.8-0.7,2.5-0.9
		l-0.2-0.2l0.3-0.3c-0.2-0.2-0.3-0.4-0.3-0.6l-0.3-0.3c0-0.2,0.1-0.3,0.2-0.5c-0.1-0.1-0.2-0.1-0.3-0.2c0.2-0.3,0.4-0.5,0.6-0.5
		C106.4,31.4,106.6,31.2,106.8,31z M110.6,14.7h5.9c0,1.3,0,2.4,0,3.6c-0.6,0.3-1.1,0.6-1.4,0.8c0.1,0.1,0.1,0.1,0.2,0.2l-0.3,0.3
		c0.1,0.1,0.1,0.1,0.2,0.2c-0.2,0-0.3,0.1-0.5,0.2c0,0.1,0.1,0.2,0.2,0.3c-0.2,0.1-0.3,0.2-0.5,0.5c0.1,0,0.2,0.1,0.3,0.2
		c-0.1,0-0.2,0.1-0.3,0.2l0.3,0.3c-0.3,0-0.5,0.1-0.6,0.3c0,0.1,0.1,0.2,0.2,0.3c-0.2,0-0.3,0.1-0.5,0.2c0.1,0.1,0.2,0.1,0.3,0.2
		c0.1,0.2,0.1,0.3,0.2,0.5c-0.7,0-1.3,0.2-1.9,0.6c0,0.1,0.1,0.2,0.2,0.3c-0.1,0-0.2,0.1-0.3,0.2c0.1,0,0.2,0.1,0.3,0.2l-0.9,0.3
		c-0.2,0.2-0.4,0.3-0.6,0.5c0.1,0.1,0.1,0.1,0.2,0.2c-0.2,0-0.3,0.1-0.5,0.2v-6.9c0-0.7,0-1.5,0-2.3v-0.3
		C110.4,15,110.4,14.7,110.6,14.7z M118.1,17.7c0.2-0.1,0.4-0.2,0.6-0.5c0.4-0.3,1-0.7,1.9-1.1c0.1,0.1,0.1,0.1,0.2,0.2
		c-0.2,0-0.3,0.1-0.5,0.2l0.3,0.3c-0.7,0-1.3,0.3-1.9,0.8C118.5,17.5,118.3,17.6,118.1,17.7z"/>
	<path d="M128.1,17.5H139c0,9.5,0,18.9,0,28.3h-4.4c-0.2,0-0.4,0-0.8,0h-0.6c-0.3,0.3-0.4,1-0.2,2v0.6h-5V27.8V21c0-0.7,0-1.5,0-2.3
		v-0.3C127.9,17.8,127.9,17.6,128.1,17.5z M133.2,39.4c0.7,0,1.2-0.1,1.4-0.3c0.1-0.3,0.1-0.9,0.2-1.9c-0.1-0.4-0.1-0.9-0.2-1.6
		V24.1c-0.3-0.1-0.8-0.1-1.4-0.2c-0.1,1.3-0.2,2.5-0.5,3.8c0,1.3,0,2.6,0,3.9c0.1,0.9,0.1,2.2,0.2,3.9c0.1,0.8,0.1,2.1,0.2,3.8
		C133.1,39.3,133.2,39.4,133.2,39.4z M139.9,16.4c0.4,0,0.8,0,1.1,0c1.7-0.2,3-0.2,3.8,0c0.3,0,0.7,0.3,1.3,0.8
		c-0.4,0.2-0.6,0.3-0.6,0.3c0,0.1-0.1,0.2-0.3,0.5c0.1,0,0.2,0.1,0.5,0.2c-0.1,0.1-0.1,0.2-0.2,0.3c0.1,0,0.2,0.1,0.3,0.2
		c-0.1,0-0.2,0.1-0.3,0.2c0.1,0,0.3,0.1,0.8,0.3c-0.1,0-0.2,0.1-0.3,0.2c0.2,0.1,0.3,0.2,0.5,0.3c0.2,0.1,0.3,0.1,0.5,0.2
		c-0.2,0.1-0.3,0.2-0.5,0.5c0.1,0,0.2,0.1,0.3,0.2c-0.2,0.1-0.3,0.2-0.5,0.5c0.2,0.1,0.4,0.2,0.6,0.5c-0.1,0.1-0.2,0.1-0.3,0.2
		c-0.1,0.2-0.2,0.3-0.3,0.5c0.4,0.3,0.8,0.6,1.3,0.8c0.3,0.2,0.6,0.3,0.9,0.5c-0.1,0-0.2,0.1-0.3,0.2c0.2,0,0.3,0.1,0.5,0.2
		c0.2,0.1,0.3,0.1,0.5,0.2c-0.2,0-0.3,0.1-0.5,0.2c0.1,0.1,0.2,0.2,0.5,0.3c-0.1,0-0.1,0.1-0.2,0.2c0.6,0.2,1.1,0.4,1.6,0.6
		c-1,0.4-1.7,0.8-2.2,1.3l0.3,0.3c-0.2,0-0.3,0.1-0.5,0.2c0.1,0.1,0.2,0.1,0.3,0.2c0.5,0.2,1,0.3,1.4,0.5c-0.2,0.1-0.3,0.2-0.5,0.3
		c0.1,0.1,0.2,0.1,0.3,0.2c0.1,0.2,0.1,0.3,0.2,0.5l-0.3,0.3c0.1,0,0.2,0.1,0.3,0.2c-0.3,0.1-0.5,0.2-0.6,0.5
		c0.1,0.1,0.2,0.1,0.3,0.2c0.4,0.3,0.8,0.6,1.3,0.8c-0.2,0-0.3,0.1-0.5,0.2c0.1,0,0.2,0.1,0.3,0.2c-0.2,0-0.3,0.1-0.5,0.2
		c0.3,0.2,0.6,0.3,0.8,0.5c0.3,0.3,0.6,0.5,0.9,0.6c-0.4,0-0.7,0.1-0.8,0.3c0.1,0,0.2,0.1,0.3,0.2c-0.1,0-0.2,0.1-0.3,0.2
		c0.6,0.1,1.3,0.5,2,1.3c-0.1,0-0.1,0.1-0.2,0.2c0.3,0.2,0.6,0.3,0.9,0.5c-0.1,0.1-0.2,0.1-0.5,0.2l-0.3,0.3l0.3,0.3l-0.3,0.3
		c-0.1,0.2-0.2,0.3-0.3,0.5c0.1,0.1,0.1,0.1,0.2,0.2c-0.5,0-0.9,0.2-1.1,0.6c0.1,0,0.2,0.1,0.5,0.2c-0.4,0.1-0.8,0.3-1.3,0.8
		c0.1,0,0.2,0.1,0.3,0.2c-0.3,0-0.5,0.1-0.6,0.2l-0.6,0.3l0.6,0.3c-0.1,0-0.1,0.1-0.2,0.2c0.1,0,0.2,0.1,0.3,0.2
		c-0.4,0.2-0.9,0.5-1.4,1.1c0.1,0.1,0.2,0.2,0.5,0.3c-0.1,0-0.2,0.1-0.3,0.2c0.1,0,0.2,0.1,0.3,0.2c-0.5,0.1-1,0.3-1.4,0.6
		c0.1,0.1,0.2,0.2,0.5,0.3l-0.9,0.5l-0.3,0.3c0.1,0.1,0.2,0.2,0.5,0.3c-0.1,0.1-0.1,0.2-0.2,0.3c0.2,0.1,0.4,0.2,0.6,0.5
		c-0.1,0-0.1,0.1-0.2,0.2c0.1,0.1,0.2,0.2,0.5,0.3c-0.1,0-0.1,0.1-0.2,0.2c0.1,0.1,0.2,0.2,0.5,0.3c-0.1,0-0.1,0.1-0.2,0.2
		c0.1,0.1,0.2,0.2,0.5,0.3l-0.3,0.3c-0.1,0.1-0.2,0.1-0.3,0.2c0.1,0.1,0.2,0.2,0.5,0.3c-0.1,0.1-0.1,0.2-0.2,0.3
		c0.1,0,0.2,0.1,0.5,0.2c-0.1,0-0.1,0.1-0.2,0.2c0.1,0.1,0.2,0.1,0.3,0.2c0.2,0.1,0.3,0.2,0.5,0.3c-0.1,0.1-0.2,0.1-0.5,0.2
		c-0.1,0.1-0.2,0.2-0.5,0.3c0.1,0,0.2,0.1,0.3,0.2H147c0-3.4,0-6.9,0-10.5c0.7,0,1.2-0.1,1.4-0.2c0.2-0.2,0.3-0.5,0.3-1.1
		c-0.6-0.1-1.5-0.1-2.7-0.2c-0.2,1.6-0.3,2.9-0.5,3.9c0,1.3,0,2.6,0,3.9c0.1,0.9,0.1,2.2,0.2,3.9c0.1,0.9,0.1,2.2,0.2,3.9h-5.6V23.9
		c1.6,0,2.9-0.1,3.8-0.2c0-0.1-0.1-0.2-0.2-0.3c-0.2-0.9-0.4-1.5-0.6-1.6c-0.1-0.1-0.7-0.1-1.7-0.2c-0.5,0.1-1,0.1-1.6,0.2
		c0-1.1,0-2.3,0-3.6v-1.3V16.4z M146,31h1.3h1.3c0.1-0.1,0.1-0.3,0.2-0.8c0-0.2,0-0.4,0-0.8c-0.6-0.1-1.5-0.1-2.7-0.2
		c-0.1,0.3-0.1,0.8-0.2,1.6C146,30.9,146,30.9,146,31z M147,17.7c0.2,0,0.3-0.1,0.5-0.2c0.2-0.1,0.3-0.2,0.5-0.3
		c-0.1-0.1-0.2-0.2-0.5-0.5l-0.3-0.3c0.3,0,0.6,0,0.8,0c0.7,0,1.1-0.3,1.3-0.9c-0.2-0.4-0.3-0.7-0.3-0.9c0.6,0,1.2,0,1.7,0l5.2-0.5
		v1.3c0,0.5,0.1,0.9,0.3,1.1h1.7c0.2,0,0.3,0,0.5,0c2.1,0,4.1,0,6.1,0c0,1.9,0,3.7,0,5.5c-0.5,0-1-0.1-1.6-0.2
		c-0.7,0-1.1,0.1-1.3,0.2c-0.4,0.1-0.6,0.7-0.6,1.9c0.6,0.1,1.7,0.1,3.1,0.2c0,7.8,0,15.6,0,23.3c-0.8,2.1-2.4,3.3-4.7,3.6h-3.1
		c-0.1-0.3-0.2-1-0.5-2c-0.4-1-0.7-1.6-0.9-1.7c-0.5-0.3-1.4-0.4-2.8-0.2h-0.6c0.1,0,0.2-0.1,0.5-0.3c0.2,0,0.4-0.1,0.6-0.2
		c-0.1-0.1-0.2-0.2-0.5-0.3c-0.2,0-0.3-0.1-0.5-0.2c0-0.1,0.1-0.1,0.2-0.2c-0.2-0.1-0.3-0.2-0.5-0.3c0-0.1,0.1-0.2,0.2-0.3
		c-0.2-0.1-0.3-0.1-0.5-0.2c0.1-0.1,0.2-0.1,0.3-0.2l0.3-0.3c-0.2-0.1-0.3-0.2-0.5-0.3c0-0.1,0.1-0.1,0.2-0.2
		c-0.2-0.1-0.3-0.2-0.5-0.3c0-0.1,0.1-0.1,0.2-0.2c-0.2-0.1-0.3-0.2-0.5-0.3c0-0.1,0.1-0.1,0.2-0.2l-0.6-0.6c0-0.1,0.1-0.1,0.2-0.2
		l-0.3-0.3c0.2-0.1,0.4-0.2,0.6-0.5c0.2-0.1,0.3-0.2,0.5-0.5c-0.2-0.1-0.3-0.1-0.5-0.2c0.4-0.2,0.9-0.4,1.6-0.6
		c-0.2-0.1-0.3-0.1-0.5-0.2c0.1-0.1,0.2-0.1,0.5-0.2l-0.6-0.3c0.6-0.4,1.1-0.8,1.6-1.1c-0.1-0.1-0.2-0.1-0.3-0.2
		c0-0.1,0.1-0.1,0.2-0.2l-0.6-0.3c0.4-0.5,1.1-1,2-1.4c-0.2-0.1-0.3-0.2-0.5-0.3c0.2-0.1,0.6-0.2,1.3-0.5l-0.2-0.2
		c0.1-0.3,0.3-0.6,0.6-0.8c-0.2-0.1-0.3-0.2-0.5-0.3c0.1,0,0.2-0.1,0.5-0.3c0.2,0,0.3-0.1,0.5-0.2c-0.3-0.3-0.6-0.5-0.9-0.5
		c0-0.1,0.1-0.2,0.2-0.3c-0.2-0.1-0.3-0.1-0.5-0.2c0-0.1,0.1-0.1,0.2-0.2c-0.6-0.3-1.3-0.6-1.9-0.8c0.1-0.1,0.2-0.1,0.3-0.2
		c-0.1-0.1-0.2-0.1-0.3-0.2l0.3-0.3c-0.3-0.6-0.7-1-1.1-1.1c0.1-0.1,0.2-0.1,0.5-0.2c-0.1-0.1-0.2-0.1-0.3-0.2
		c0.1-0.1,0.2-0.1,0.5-0.2c-0.6-0.4-1.2-0.8-1.7-1.1c0.2-0.4,0.4-0.8,0.8-1.1l-0.6-0.3c0.1-0.1,0.2-0.2,0.5-0.3
		c-0.4-0.2-0.7-0.3-0.9-0.3c-0.4-0.2-0.7-0.3-0.8-0.3c0.1-0.1,0.2-0.2,0.5-0.3c-0.1-0.2-0.2-0.3-0.3-0.5c0.6-0.2,1-0.3,1.3-0.5
		c0.4-0.1,0.8-0.2,1.1-0.5c-0.4-0.2-0.7-0.3-0.9-0.3c-0.4-0.2-0.7-0.3-0.8-0.3c0-0.1,0.1-0.2,0.2-0.3c-0.2-0.1-0.3-0.1-0.5-0.2
		c0.1-0.1,0.2-0.1,0.5-0.2c-0.1,0-0.2-0.1-0.5-0.2c-0.1-0.1-0.2-0.1-0.5-0.2c0.1-0.1,0.2-0.1,0.3-0.2c-0.6-0.5-1.4-0.9-2.2-1.3
		c0.1-0.1,0.1-0.2,0.2-0.3c0.2-0.1,0.3-0.2,0.5-0.3c-0.2-0.2-0.4-0.3-0.6-0.5c0.1-0.2,0.2-0.3,0.5-0.5l-0.3-0.3
		c0.1-0.1,0.2-0.1,0.3-0.2c-0.2-0.2-0.3-0.3-0.5-0.3l-0.3-0.3c0.1-0.1,0.2-0.1,0.3-0.2c-0.4-0.2-0.7-0.3-0.8-0.3
		c0.1-0.1,0.2-0.1,0.3-0.2l-0.3-0.3c0-0.1,0.1-0.1,0.2-0.2c-0.1-0.1-0.2-0.2-0.5-0.3C146.9,17.8,146.9,17.7,147,17.7z M151.2,22.5
		c0.2,0.9,1.1,1.4,2.8,1.4h0.6c0.3-0.7,0.5-1.3,0.6-1.9c-0.5-0.1-1.2-0.1-2.2-0.2h-1.9c-0.1,0.1-0.1,0.2-0.2,0.5
		C151.1,22.5,151.2,22.5,151.2,22.5z M152.9,43.5c0.9,0,1.3-0.9,1.1-2.7c0-0.1,0-0.2,0-0.5c-0.4-0.1-1-0.1-1.7-0.2
		c-0.1,0.3-0.1,0.8-0.2,1.6v1.6c0.1,0,0.2,0.1,0.3,0.2C152.6,43.5,152.8,43.5,152.9,43.5z M155.9,31h1.3c0.4,0,0.8,0,1.1,0
		c0.1-0.1,0.1-0.3,0.2-0.8c0-0.2,0-0.4,0-0.8c-0.5-0.1-1.3-0.1-2.5-0.2c-0.1,0.3-0.1,0.8-0.2,1.6C155.8,30.9,155.9,30.9,155.9,31z
		 M155.9,36.6h1.6c0,0.8,0,1.6,0,2.3c-0.2,3.1-0.1,5.4,0.2,6.9c0.6-0.8,0.9-2,0.9-3.6c0.2-1.4,0.2-2.9,0-4.4
		c-0.1-0.6-0.1-1.5-0.2-2.5c-0.5-0.1-1.3-0.1-2.5-0.2c-0.1,0.2-0.1,0.6-0.2,1.3C155.8,36.5,155.9,36.6,155.9,36.6z"/>
	<path d="M166.7,46.1c0.1-0.1,0.4-0.6,1.1-1.6c0.2-0.4,0.4-0.7,0.6-0.8c0.2-0.2,0.3-0.4,0.5-0.8c0.6-0.8,1.1-1.4,1.4-1.7
		c-0.3-0.1-0.8-0.1-1.4-0.2V33H187v8.1c-0.6,0-1,0.1-1.3,0.2c0.1,0.1,0.1,0.2,0.2,0.3c0.6,1.3,1.2,2.1,1.7,2.5
		c1-0.4,1.8-0.7,2.5-0.9c0.8-0.3,1.6-0.6,2.3-0.9c1.1-0.7,2.7-2.1,4.7-4.1c0.5-0.4,1-0.9,1.4-1.4c-0.2,0.1-0.3,0.2-0.5,0.5
		c0.1,0,0.2,0.1,0.3,0.2c0.2,0.1,0.4,0.1,0.6,0.2l-0.3,0.3c1.1,0.5,2.7,1.7,4.7,3.8c-0.9,0.8-2.2,2.1-3.9,3.8
		c-1.6,1.4-2.9,2.5-3.9,3.1c-0.5,0.3-1,0.6-1.6,0.8c-2.5,0.9-4.1,1.6-4.7,1.9c0-0.1-0.1-0.2-0.2-0.5c-0.1-0.2-0.2-0.6-0.5-1.3
		c0-0.3-0.2-0.7-0.5-1.3c-0.3,0.2-0.7,0.4-1.1,0.6c-0.6,0.3-1.6,0.9-2.8,1.7c-0.5-1.6-1.5-3.5-3.1-5.9c-0.1,0.4-0.1,1-0.2,1.7v1.9
		c-0.1,1.1-0.9,1.9-2.5,2.3c-0.8,0.3-2.1,0.5-3.9,0.5c-0.3-0.7-0.6-1.5-0.9-2.3c-0.4-1-0.7-1.7-0.9-2.2c-0.6,0.8-1.1,1.5-1.4,2
		c-0.2,0.4-0.6,1.1-1.3,2.2c-0.7-1.1-1.5-2.3-2.5-3.4l-0.9-0.9V46.1z M167.6,27.8c0.6,0,1.2,0,1.7,0c1.7,0.2,3.5,0.2,5.2,0
		c0.3-0.1,0.5-0.2,0.5-0.3c0.1-0.1,0.1-0.3,0.2-0.6c-1.3-0.3-2.9-0.4-4.7-0.2c-0.4,0-0.9,0-1.4,0V15.8c1.7,1.1,3.3,1.8,4.7,2
		c-0.1,0.1-0.2,0.1-0.3,0.2l-0.3,0.3c0.1,0.1,0.2,0.1,0.3,0.2c0.6,0.2,1,0.3,1.3,0.5c0.2,0.1,0.4,0.2,0.6,0.5
		c0.2,0.3,0.4,0.5,0.8,0.5c-0.1,0-0.2,0.1-0.3,0.2c0.2,0.2,0.4,0.3,0.6,0.3l0.6,0.3l-0.3,0.3c0.2,0,0.4,0.1,0.6,0.2
		c-0.1,0-0.1,0.1-0.2,0.2c0.2,0.2,0.3,0.3,0.5,0.3l0.6,0.3c-0.1,0-0.1,0.1-0.2,0.2l0.3,0.3h-1.3h-1.3c-0.4,0-0.7,0.3-0.8,0.8
		c1.1,0.1,3.1,0.1,5.9,0.2c-0.1,0-0.1,0.1-0.2,0.2c0.8,0.5,1.8,0.9,3,1.3c-0.3,0-0.6,0.2-0.8,0.5c0.1,0,0.2,0.1,0.5,0.2
		c-0.1,0-0.1,0.1-0.2,0.2c0.4,0.2,0.8,0.3,1.1,0.5c0.3,0,0.7,0.1,1.1,0.3c0.5,0.2,1,0.3,1.4,0.5c-0.8,0-1.6-0.1-2.5-0.2
		c-1,0-1.7,0.1-2.2,0.2c-0.4,0.2-0.6,0.3-0.6,0.3v0.6c0.7,0.1,1.8,0.1,3.4,0.2h3.4c0,0.3,0,0.6,0,0.8c-0.2,0.1-0.3,0.2-0.5,0.3
		c0.1,0.2,0.2,0.4,0.5,0.6c-0.1,0-0.1,0.1-0.2,0.2c0,0.8,0.2,1.5,0.5,2.2c0.3-0.2,0.9-0.4,1.7-0.6c0.1,0,0.3,0.1,0.8,0.3l-0.3,0.3
		c0.2,0,0.3,0.1,0.5,0.2c0.3,0.1,0.6,0.1,0.8,0.2c-0.1,0-0.1,0.1-0.2,0.2c0.2,0,0.4,0.1,0.6,0.2c-0.1,0-0.1,0.1-0.2,0.2
		c0.6,0.4,1.1,0.7,1.6,0.9c-0.1,0-0.2,0.1-0.3,0.2c0.2,0.2,0.3,0.3,0.3,0.3c0.2,0.1,0.3,0.1,0.5,0.2c-0.1,0-0.2,0.1-0.3,0.2
		c0.2,0,0.4,0.1,0.6,0.2h0.6c-0.1,0.1-0.1,0.2-0.2,0.3h0.3c0.3,0.2,0.6,0.3,0.9,0.5c-2.7,1.6-4.8,2.7-6.3,3.3
		c-0.1-0.6-0.3-1.3-0.8-2c-0.4-0.8-0.7-1.5-0.9-2c-0.7-1.4-1.1-2.2-1.1-2.2c0-0.1,0.1-0.1,0.2-0.2c-1.6-0.3-3.4-0.4-5.5-0.2
		c-0.5,0-1.1,0-1.7,0c-4.2,0-8.6,0-13,0c0-1,0-2.1,0-3.3c0-0.1,0-0.2,0-0.5C167.6,28.2,167.6,28.1,167.6,27.8z M189.2,15.3
		c0,2.1,0,3.1,0,3.1c0,1.3,0.1,2.3,0.3,2.8c2.3-1.3,3.9-2.2,5-3c1.6-0.8,3.1-2,4.7-3.6c0.4,0.6,0.7,1.1,0.8,1.4
		c1.3,1.9,2.2,3.2,3,4.1c-1.6,1.6-3.4,3.1-5.3,4.4c-1.7,1.4-3.7,2.5-5.8,3.1c-0.1-0.3-0.2-0.7-0.5-1.1c-0.3-0.7-0.6-1.5-0.9-2.3
		c-0.4-1-0.8-1.7-1.1-2.2c-0.1,0.5-0.1,1.3-0.2,2.3c-0.1,0.5-0.1,1.3-0.2,2.3c-1.3-0.5-2.6-0.9-3.8-1.3c0-0.1,0.1-0.1,0.2-0.2
		c-0.2-0.1-0.3-0.1-0.5-0.2c0.1-0.1,0.3-0.2,0.8-0.5c-0.6-0.3-0.9-0.4-0.8-0.3c-0.5-0.2-1.2-0.5-2-0.9c0-0.1,0.1-0.1,0.2-0.2
		c-0.2-0.7-0.9-1.1-2-1.1c-0.3,0-0.6-0.1-0.9-0.2c0-0.1,0.1-0.1,0.2-0.2l-0.3-0.3l-0.9-0.3c0-0.1,0.1-0.1,0.2-0.2
		c-0.2-0.1-0.4-0.1-0.6-0.2l0.3-0.3c-0.3-0.2-0.7-0.4-1.1-0.6c0.7-0.3,1.4-0.4,2-0.3c0.8,0,1.6,0,2.3,0c0.2,0,0.4-0.1,0.6-0.2
		c0-0.2,0.1-0.4,0.2-0.6c-0.6-0.1-1.6-0.1-3-0.2h-2.8c-0.1,0-0.1,0.1-0.2,0.2c-0.4-0.2-0.8-0.3-1.1-0.3c-0.4-0.2-0.7-0.3-0.8-0.3
		c0.1-0.2,0.2-0.3,0.5-0.5c-1.6-0.6-2.8-1.1-3.4-1.4l-0.9-0.6l-0.5-0.5H189.2z M172.9,41.6c0.5,0.6,1,1.4,1.4,2.3
		c-0.3,0.3-0.7,0.9-1.1,1.7c0.3,0,0.6,0.1,0.8,0.2h0.9c0.3-0.7,0.5-1.8,0.5-3.4c0-0.3,0-0.7,0-1.1c-0.5-0.1-1.3-0.1-2.5-0.2
		c-0.1,0.1-0.1,0.2-0.2,0.3C172.8,41.5,172.9,41.6,172.9,41.6z M174.9,37.7h1.3c2.1,0.2,3.5,0.2,4.4,0c0.3-0.2,0.5-0.5,0.5-1.1
		c-1.3-0.3-2.9-0.4-4.7-0.2c-0.4,0-0.9,0-1.4,0c-0.1,0.2-0.1,0.5-0.2,1.1C174.9,37.6,174.9,37.7,174.9,37.7z M181.2,43.2
		c0.6-0.4,1.3-0.7,1.9-0.9c0.7-0.3,1.4-0.6,2-0.9c-0.4-0.1-1.1-0.1-2-0.2h-1.9c-0.1,0.3-0.1,0.9-0.2,1.9
		C181.1,43.1,181.2,43.1,181.2,43.2z M189.9,28.9c0.1-0.1,0.2-0.1,0.3-0.2v0.6C190.2,29.2,190.1,29.1,189.9,28.9z M204.2,30.7
		c-2.5,2.3-4.4,3.8-5.8,4.5c-0.3-0.1-0.7-0.2-1.1-0.5c-0.6-0.2-1-0.3-1.1-0.3c0.1-0.1,0.2-0.1,0.3-0.2c-0.3-0.2-0.5-0.3-0.6-0.5
		c0-0.1,0.1-0.1,0.2-0.2c-0.2-0.2-0.3-0.3-0.5-0.3c-0.3-0.2-0.7-0.4-1.1-0.6c0-0.1,0.1-0.1,0.2-0.2c-0.2-0.1-0.4-0.1-0.6-0.2
		c0-0.1,0.1-0.1,0.2-0.2c-0.2-0.1-0.4-0.2-0.8-0.3c-0.1,0-0.2-0.1-0.5-0.2c0.1-0.1,0.2-0.1,0.3-0.2c-0.1,0-0.2-0.1-0.5-0.3
		c-0.1,0-0.2-0.1-0.3-0.2c0.9-0.7,2.4-1.7,4.5-3c0.6-0.5,1.2-1,1.7-1.6c0.7-0.7,1.3-1.2,1.7-1.4c0.2,0.2,0.3,0.3,0.3,0.3l0.9,1.4
		C202.1,27.7,202.9,29,204.2,30.7z M201.7,38c0.1,0.1,0.2,0.2,0.3,0.5c-0.6-0.3-1.1-0.5-1.4-0.6c0.1-0.1,0.2-0.2,0.5-0.3
		c-0.2,0-0.4-0.1-0.6-0.2c-0.1-0.1-0.2-0.1-0.5-0.2c0.1-0.1,0.2-0.2,0.5-0.3C200.9,37.2,201.3,37.6,201.7,38z"/>
	<path d="M206.8,35c2.9-1.6,5.4-4.3,7.7-8.3c-1.4-0.3-3-0.4-4.8-0.2h-1.6v-6.9c0.4,0,0.8,0,1.1,0c1.4,0,2.3-0.3,2.5-0.8
		c0.1,0.2,0.1,0.3,0.2,0.5c0.1,0,0.2,0.1,0.5,0.3c-0.1,0-0.2,0.1-0.3,0.2c0.1,0.1,0.2,0.2,0.5,0.3c-0.1,0-0.1,0.1-0.2,0.2
		c0.2,0,0.4,0.1,0.6,0.2c-0.3,0.1-0.6,0.3-0.9,0.8c0.3,0.1,0.7,0.2,1.1,0.5c0.6,0.2,1,0.3,1.3,0.3c-0.1,0-0.2,0.1-0.3,0.2
		c1,0.3,2,0.7,2.8,1.3c-0.1,0-0.1,0.1-0.2,0.2c0.2,0.1,0.3,0.2,0.5,0.3c0.7,0.3,1.4,0.6,2,0.9c-0.2,0.1-0.3,0.2-0.5,0.3
		c0.1,0,0.2,0.1,0.3,0.2c0.2,0.1,0.4,0.1,0.6,0.2c-0.1,0-0.2,0.1-0.3,0.2c0.8,0.3,1.4,0.8,1.9,1.4c-0.1,0.4-0.2,0.8-0.5,1.1
		c-0.2,0.5-0.4,1-0.6,1.4c-0.3,0.8-0.5,1.3-0.6,1.6c0.4,0.2,0.9,0.5,1.6,0.9c0.6,0.5,1.2,0.9,1.7,1.1V31c0-1.6,0.1-2.8,0.3-3.4
		l0.6,0.3c-0.1,0.1-0.1,0.2-0.2,0.3c0.1,0,0.2,0.1,0.3,0.2c-0.2,0.1-0.3,0.2-0.5,0.5l0.6,0.3l-0.3,0.3l0.3,0.3
		c-0.1,0-0.1,0.1-0.2,0.2c0.1,0.1,0.2,0.1,0.3,0.2c0.4,0.3,0.8,0.6,1.3,0.8l-0.6,0.3c0.5,0.4,1.2,0.7,2,0.8c-0.1,0-0.2,0.1-0.3,0.2
		c0.1,0.1,0.1,0.1,0.2,0.2c-0.2,0.1-0.3,0.2-0.5,0.5c0.2,0.1,0.3,0.2,0.5,0.3c0.1,0,0.2,0.1,0.5,0.3c-0.1,0-0.1,0.1-0.2,0.2l0.6,0.3
		c0.1,0.2,0.1,0.8,0.2,1.9c0,0.7,0,1.4,0,2c0.3-0.5,0.5-1.1,0.6-1.7c0.2-0.8,0.3-1.4,0.5-1.7c0.3,0.1,0.7,0.2,1.1,0.5
		c0.4,0.3,0.8,0.5,1.3,0.6c-0.1,0.1-0.2,0.2-0.3,0.5c1,0.5,1.8,1,2.5,1.4c-0.1,0-0.2,0.1-0.3,0.2c0.2,0,0.3,0.1,0.5,0.2
		c0.2,0.1,0.4,0.1,0.6,0.2c-0.1,0-0.1,0.1-0.2,0.2c0.1,0,0.2,0.1,0.3,0.2c-0.4,0.2-0.7,0.4-0.8,0.6c0.5,0.2,1,0.3,1.4,0.5
		c0.6,0.2,1.1,0.4,1.4,0.6c-0.1,0-0.1,0.1-0.2,0.2c0.1,0.1,0.1,0.1,0.2,0.2c-0.1,0-0.1,0.1-0.2,0.2c0.2,0,0.4,0.1,0.6,0.3
		c-0.2,0-0.4,0.1-0.6,0.2c0.1,0,0.2,0.1,0.5,0.2l-0.3,0.3c0.1,0.1,0.1,0.1,0.2,0.2c-0.1,0.1-0.1,0.2-0.2,0.3
		c0.3,0.1,0.6,0.2,0.8,0.3c0.2,0.2,0.2,0.3,0,0.5c0,1.1,0,1.7,0,1.7c0.1,0.2,0.3,0.3,0.6,0.3h0.9c0.1-0.1,0.2-0.1,0.5-0.2
		c-0.1,0.1-0.2,0.2-0.3,0.5c0.1,0.1,0.1,0.1,0.2,0.2c-0.1,0-0.1,0.1-0.2,0.2c0.2,0.4,0.3,0.6,0.3,0.6c0,0.1,0.1,0.2,0.3,0.5
		c-0.1,0-0.1,0.1-0.2,0.2c0.2,0,0.3,0.1,0.5,0.2c0.2,0.1,0.4,0.1,0.6,0.2c-0.2,0.1-0.3,0.2-0.5,0.3c0.2,0,0.4,0.1,0.6,0.2
		c-0.1,0-0.1,0.1-0.2,0.2c0.1,0.1,0.2,0.1,0.5,0.2c0.3,0.1,0.6,0.2,0.8,0.3c0,0.3,0,0.6,0,0.8c-0.1,0-0.2,0.1-0.3,0.2
		c0.2,0.1,0.5,0.3,0.9,0.8c-0.8,0.7-2,1.1-3.4,1.1c-1.4,0.2-2.8,0.2-4.1,0c-0.3,0-0.7,0-1.1,0c-1.6-0.3-2.5-1.5-2.5-3.4
		c0-0.5-0.1-1-0.2-1.6c-1.7,2-3.7,3.7-5.8,5.3c-0.4-0.4-0.9-0.8-1.4-1.3c-2.1-1.9-3.5-3-4.4-3.3c1.3-0.8,2.2-1.4,3-1.9l2.8-2.3
		l1.6-1.9c0.2-0.3,0.3-0.7,0.5-1.1c0.1-0.3,0.2-0.7,0.5-1.1c-0.5-0.1-1.3-0.1-2.5-0.2h-2.5c-0.3,0.5-0.6,1-0.9,1.4
		c-0.4,0.6-0.7,1-0.8,1.3c-0.1-0.1-0.2-0.2-0.5-0.3c-0.7-0.5-1.5-1.1-2.3-1.7c-0.2,0.9-0.3,2.4-0.3,4.5v5c0.1,0.6,0.1,1.6,0.2,3
		c-2.1,0-4.2,0-6.4,0c0-1.1,0.1-2,0.2-2.7c0-1.3,0-2.7,0-4.2c0-1.4-0.2-2.6-0.5-3.6c-0.7,0.4-1.3,0.8-1.9,1.3
		c-0.8-2.1-1.4-3.6-1.7-4.5C207.1,35.8,206.7,35.1,206.8,35z M212.4,15l3.3-0.5l3.4-0.3c0.1,0.3,0.1,0.6,0.2,0.9
		c0.2,0.9,0.3,1.9,0.5,2.8v0.9c0,0.3,0.1,0.6,0.3,0.8c0.1,0.1,0.5,0.1,1.4,0.2c0.5-0.1,1.1-0.1,1.7-0.2v6.9l-0.6-0.3
		c-0.6-0.4-1.1-0.6-1.4-0.6c0.1-0.1,0.2-0.1,0.3-0.2c-0.4-0.2-0.7-0.3-0.8-0.3l0.3-0.3l-0.9-0.5c-1-0.5-1.5-0.8-1.6-0.8
		c0-0.1,0.1-0.1,0.2-0.2c-0.8-0.6-1.7-1-2.8-1.3c0.1-0.1,0.2-0.1,0.3-0.2c-0.3-0.1-0.7-0.2-1.1-0.5c-0.6-0.2-1-0.3-1.1-0.3
		c0.2-0.1,0.3-0.2,0.5-0.5c0.2-0.1,0.3-0.2,0.5-0.3c-0.2-0.1-0.4-0.1-0.6-0.2c0-0.1,0.1-0.1,0.2-0.2l-0.6-0.3
		c0.1-0.1,0.2-0.1,0.3-0.2c-0.5-0.5-0.9-1.2-1.1-2c0-0.2-0.1-0.4-0.2-0.8c0-0.3-0.1-0.6-0.2-0.8c0-0.1-0.1-0.2-0.2-0.3
		C212.3,15.3,212.2,15.1,212.4,15z M224.6,15.2c6.3,0,12.4,0,18.6,0c0,7.6,0,15.1,0,22.7h-3.1h-0.6c-0.1,0-0.2,0-0.5,0
		c-0.4,0.2-0.5,0.8-0.3,1.9c0,0.7,0,1.4,0,2l-0.3-0.3c0-0.1,0.1-0.1,0.2-0.2l-0.2-0.2l0.3-0.3c-0.2-0.1-0.3-0.1-0.5-0.2l0.6-0.3
		c-0.2-0.1-0.4-0.1-0.6-0.2c0-0.1,0.1-0.1,0.2-0.2l-0.2-0.2c0-0.1,0.1-0.1,0.2-0.2c-0.3-0.2-0.8-0.4-1.4-0.6
		c-0.4-0.1-0.9-0.2-1.4-0.5l0.6-0.6c-0.1-0.1-0.2-0.1-0.3-0.2c0-0.1,0.1-0.1,0.2-0.2c-0.4-0.2-0.7-0.3-0.9-0.3
		c0.1-0.1,0.2-0.1,0.3-0.2c-1.3-0.7-2.1-1.3-2.5-1.7c0-0.1,0.1-0.1,0.2-0.2c-0.1-0.1-0.2-0.2-0.5-0.3c-0.6-0.3-1.1-0.5-1.6-0.5
		c0-0.1,0.1-0.1,0.2-0.2c-0.3-0.2-0.5-0.3-0.6-0.5c0.2-1,0.3-1.9,0.3-2.7c0.1-0.9,0.1-1.9,0.2-2.8c0-1.7,0-3.6,0-5.5h5.9v9.4
		c0,0.2-0.1,0.3-0.2,0.5c0,0.5-0.1,1-0.2,1.6c0,0.7-0.1,1.2-0.2,1.6c0.3,0,0.6,0.1,0.8,0.2c0.4,0,0.8,0,1.1,0c0.2-1.6,0.3-4,0.3-7.3
		c0-2.3-0.1-4.6-0.2-7c-2-0.3-4.2-0.4-6.7-0.2h-2.2c-0.2,0.9-0.3,2.4-0.3,4.5c0.1,1.6,0.1,3.1,0.2,4.7c0,1.3-0.1,2.2-0.2,2.8
		c-0.1-0.1-0.2-0.1-0.3-0.2c0-0.1,0.1-0.2,0.2-0.3c-0.2-0.2-0.3-0.3-0.5-0.3c-0.1-0.1-0.3-0.1-0.6-0.2c0.1-0.2,0.2-0.3,0.5-0.5
		l-0.2-0.2c0.1-0.1,0.2-0.1,0.3-0.2c-0.4-0.1-0.7-0.2-0.9-0.5c-0.2,0-0.5-0.1-0.9-0.3c0.1-0.1,0.2-0.2,0.5-0.3
		c-0.2-0.2-0.4-0.4-0.8-0.6l-0.6-0.3c0-0.1,0.1-0.1,0.2-0.2c-0.2-0.1-0.3-0.2-0.5-0.3c0.1-0.1,0.2-0.2,0.5-0.3
		c-0.1,0-0.2-0.1-0.5-0.3c-0.1,0-0.2-0.1-0.3-0.2l0.6-0.3c-0.2-0.1-0.3-0.2-0.5-0.3c0-0.1,0.1-0.1,0.2-0.2c-0.3-0.1-0.6-0.2-0.9-0.5
		c-0.1-0.2-0.1-0.6-0.2-1.3c0.1-0.3,0.1-0.7,0.2-1.1v-6.6v-2.2V16C224.4,15.5,224.4,15.2,224.6,15.2z M243.2,43
		c0.1,0.1,0.2,0.1,0.3,0.2c0.7,0.3,1.1,0.5,1.1,0.6c0.2,0.4,0.2,1.5,0,3.4c0,0.4,0,0.8,0,1.1c-0.2,0.2-0.3,0.4-0.3,0.8
		c-0.4-0.3-0.8-0.5-1.1-0.5c0.1-0.1,0.2-0.2,0.5-0.3c-0.1-0.1-0.1-0.2-0.2-0.3c0-0.1,0.1-0.1,0.2-0.2c-0.2-0.1-0.4-0.2-0.8-0.5
		c-0.2,0-0.4-0.1-0.6-0.2c0-0.1,0.1-0.1,0.2-0.2c-0.2-0.1-0.4-0.1-0.6-0.2c0.1-0.1,0.2-0.2,0.5-0.3c-0.4-0.2-0.7-0.3-0.9-0.3
		c0-0.1,0.1-0.1,0.2-0.2c-0.2-0.2-0.3-0.3-0.3-0.5l-0.3-0.6c0-0.1,0.1-0.1,0.2-0.2l-0.2-0.2c0.1-0.2,0.2-0.3,0.3-0.5
		c-0.2-0.1-0.3-0.1-0.5-0.2c0-0.1,0.1-0.1,0.2-0.2c-0.1-0.1-0.1-0.2-0.2-0.3c0-0.8,0.1-1.4,0.3-1.9c0.4,0.3,0.8,0.6,1.3,0.8
		C242.6,42.7,242.9,42.9,243.2,43z"/>
</g>
<path class="st0" d="M65.4,18.9c-2.4-2.5-5.7-4.3-9.5-4.8C55.4,14.1,55,14,54.5,14l5.1-6.9c1-1.3,0.6-3.1-0.8-4
	c-1.4-0.9-3.3-0.6-4.2,0.7l-7,9.5h0c-3.9-0.3-7.8-0.4-11.7-0.4S28,13,24.1,13.3h0l-7-9.5c-1-1.3-2.9-1.6-4.2-0.7
	c-1.4,0.9-1.7,2.7-0.8,4l5.1,6.9c-0.5,0.1-0.9,0.1-1.4,0.2c-7.6,1-13.3,7.1-13.3,14.3v20c0,3.6,1.4,6.9,3.8,9.5
	c2.4,2.5,5.7,4.3,9.5,4.8c13.3,1.7,26.8,1.7,40.1,0c7.6-1,13.3-7.1,13.3-14.3v-20C69.3,24.8,67.8,21.5,65.4,18.9z M45.6,40.9l-11,8
	c-2.2,1.6-5.4,0.1-5.4-2.5V30.4c0-2.6,3.2-4.1,5.4-2.5l11,8C47.3,37.2,47.3,39.7,45.6,40.9L45.6,40.9z"/>
</svg>
